<?xml version="1.0" encoding="utf-8"?>
<!-- Generator: Adobe Illustrator 16.0.0, SVG Export Plug-In . SVG Version: 6.00 Build 0)  -->
<!DOCTYPE svg PUBLIC "-//W3C//DTD SVG 1.1//EN" "http://www.w3.org/Graphics/SVG/1.1/DTD/svg11.dtd">
<svg version="1.1" xmlns="http://www.w3.org/2000/svg" xmlns:xlink="http://www.w3.org/1999/xlink" x="0px" y="0px" width="500px"
	 height="273.228px" viewBox="0 0 500 273.228" enable-background="new 0 0 500 273.228" xml:space="preserve">
<g id="Layer_1" display="none">
	<g id="sbfSLt.tif" display="inline">
		
			<image overflow="visible" width="684" height="470" id="Layer_0" xlink:href="ABC26E07D23AAFE2.png"  transform="matrix(1 0 0 1 -92 -37.9263)">
		</image>
	</g>
	<polyline display="inline" fill="none" stroke="#fff" stroke-width="10" stroke-miterlimit="10" points="0,246.074 24,246.074 
		103.89,172.444 151.921,212.601 241.685,140.16 310.189,193.117 356.646,164.57 453,246.074 520,246.074 	"/>
</g>
<g id="Layer_2">
	<polyline fill="none" stroke="#ffffff" stroke-width="10" stroke-miterlimit="10" points="0,246.074 24,246.074 103.89,172.444 
		147.924,209.259 	"/>
	<polyline fill="none" stroke="#ffffff" stroke-width="10" stroke-miterlimit="10" points="106.253,249.609 241.685,140.16 
		314.127,197.074 	"/>
	<polyline fill="none" stroke="#ffffff" stroke-width="10" stroke-miterlimit="10" points="268.458,224.412 356.646,164.57 
		453,246.074 520,246.074 	"/>
	
		<line fill="none" stroke="#ffffff" stroke-width="10" stroke-miterlimit="10" x1="383.418" y1="153.546" x2="405.465" y2="147.247"/>
	<line fill="none" stroke="#ffffff" stroke-width="10" stroke-miterlimit="10" x1="351.922" y1="95.279" x2="369.244" y2="79.531"/>
	<line fill="none" stroke="#ffffff" stroke-width="10" stroke-miterlimit="10" x1="299.166" y1="56.696" x2="308.614" y2="34.649"/>
	<line fill="none" stroke="#ffffff" stroke-width="10" stroke-miterlimit="10" x1="235" y1="46.074" x2="235" y2="17.074"/>
	<line fill="none" stroke="#ffffff" stroke-width="10" stroke-miterlimit="10" x1="170.821" y1="56.696" x2="161.372" y2="34.649"/>
	<line fill="none" stroke="#ffffff" stroke-width="10" stroke-miterlimit="10" x1="116.49" y1="95.279" x2="100.742" y2="79.531"/>
	<line fill="none" stroke="#ffffff" stroke-width="10" stroke-miterlimit="10" x1="87.356" y1="153.546" x2="66.884" y2="147.247"/>
</g>
</svg>
